<svg width="14" height="14" viewBox="0 0 14 14" fill="none" xmlns="http://www.w3.org/2000/svg">
<g clip-path="url(#clip0_1_1766)">
<path d="M10.5 3.5C10.5 2.57174 10.1313 1.6815 9.47487 1.02513C8.8185 0.368749 7.92826 0 7 0C6.07174 0 5.1815 0.368749 4.52513 1.02513C3.86875 1.6815 3.5 2.57174 3.5 3.5H0V12.25C0 12.7141 0.184374 13.1592 0.512563 13.4874C0.840752 13.8156 1.28587 14 1.75 14H12.25C12.7141 14 13.1592 13.8156 13.4874 13.4874C13.8156 13.1592 14 12.7141 14 12.25V3.5H10.5ZM7 1.16667C7.61884 1.16667 8.21233 1.4125 8.64992 1.85008C9.0875 2.28767 9.33333 2.88116 9.33333 3.5H4.66667C4.66667 2.88116 4.9125 2.28767 5.35008 1.85008C5.78767 1.4125 6.38116 1.16667 7 1.16667ZM12.8333 12.25C12.8333 12.4047 12.7719 12.5531 12.6625 12.6625C12.5531 12.7719 12.4047 12.8333 12.25 12.8333H1.75C1.59529 12.8333 1.44692 12.7719 1.33752 12.6625C1.22812 12.5531 1.16667 12.4047 1.16667 12.25V4.66667H3.5V5.83333H4.66667V4.66667H9.33333V5.83333H10.5V4.66667H12.8333V12.25Z" fill="white"/>
</g>
<defs>
<clipPath id="clip0_1_1766">
<rect width="14" height="14" fill="white"/>
</clipPath>
</defs>
</svg>
