<svg width="393" height="92" viewBox="0 0 393 92" fill="none" xmlns="http://www.w3.org/2000/svg">
<g clip-path="url(#clip0_7_3015)">
<path d="M389.86 77.934C389.186 77.4855 388.284 77.7097 387.891 78.4381C383.892 85.7218 377.078 88.2989 370.996 88.2989C357.256 88.2989 349.935 74.7404 349.146 58.7163C349.09 57.8761 349.09 57.0354 349.09 56.1952V56.1392H388.511C389.074 56.1392 389.525 55.6911 389.525 55.1306C389.806 45.9421 385.637 28.4056 365.252 28.4056C347.457 28.4056 332.196 41.5721 332.196 60.0051C332.196 78.7743 348.02 91.9966 364.351 91.9966C374.6 91.9966 385.583 86.8423 390.592 78.3821L389.86 77.934ZM362.155 29.9744C370.208 31.7673 372.911 45.494 372.517 54.6266H349.09C349.372 40.1155 354.89 29.9744 362.155 29.9744Z" fill="#FFE9DC"/>
<path d="M261.751 78.4381C257.753 85.7218 250.939 88.2989 244.857 88.2989C231.117 88.2989 223.796 74.7404 223.007 58.7163C222.951 57.8761 222.951 57.0354 222.951 56.1952V56.1392H262.371C262.934 56.1392 263.385 55.6911 263.385 55.1306C263.666 45.9421 259.499 28.4056 239.114 28.4056C221.318 28.4056 206.057 41.5721 206.057 60.0051C206.057 78.7743 221.881 91.9966 238.212 91.9966C248.462 91.9966 259.443 86.8423 264.455 78.3821L263.835 77.934C263.103 77.4855 262.146 77.7097 261.751 78.4381ZM236.016 29.9744C244.069 31.7673 246.772 45.494 246.378 54.6266H222.951C223.289 40.1155 228.808 29.9744 236.016 29.9744Z" fill="#FFE9DC"/>
<path d="M137.404 0V74.6844C137.404 84.2651 145.175 91.9969 154.805 91.9969V17.3124C154.805 7.7878 147.034 0 137.404 0Z" fill="#FFE9DC"/>
<path d="M165.448 27.3967C164.547 27.3967 163.815 28.0691 163.815 28.9655C163.702 28.9655 163.759 28.9655 163.815 28.9655C174.515 31.5988 180.653 46.5022 179.301 64.9911C178.288 78.9418 173.67 89.1388 163.815 90.4276C163.815 91.3238 164.547 92.0525 165.505 91.9962C169.503 91.8283 173.445 90.9317 177.105 89.3631C192.592 82.6958 201.883 64.2068 194.224 46.726C188.762 34.2881 177.218 27.7889 165.448 27.3967Z" fill="#FFE9DC"/>
<path d="M0 0V74.6844C0 84.2651 7.77134 91.9969 17.401 91.9969V17.3124C17.401 7.7878 9.62969 0 0 0Z" fill="#FFE9DC"/>
<path d="M28.0441 27.3967C27.1431 27.3967 26.411 28.0691 26.411 28.9655C26.2984 28.9655 26.3547 28.9655 26.411 28.9655C37.1107 31.5988 43.2489 46.5022 41.8973 64.9911C40.8836 78.9418 36.266 89.1388 26.411 90.4276C26.411 91.3238 27.1431 92.0525 28.1004 91.9962C32.0987 91.8283 36.0407 90.9317 39.7011 89.3631C55.1876 82.6958 64.4794 64.2068 56.8205 46.726C51.3582 34.2881 39.8136 27.7889 28.0441 27.3967Z" fill="#FFE9DC"/>
<path d="M124.287 78.4381C120.289 85.7218 113.475 88.2989 107.393 88.2989C93.6527 88.2989 86.3317 74.7404 85.5434 58.7163C85.4872 57.8761 85.4871 57.0354 85.4871 56.1952V56.1392H124.907C125.47 56.1392 125.921 55.6911 125.921 55.1306C126.202 45.9421 122.035 28.4056 101.649 28.4056C83.8539 28.4056 68.5928 41.5721 68.5928 60.0051C68.5928 78.7743 84.4172 91.9966 100.748 91.9966C110.997 91.9966 121.978 86.8423 126.991 78.3821L126.371 77.934C125.583 77.4855 124.682 77.7097 124.287 78.4381ZM98.5521 29.9744C106.605 31.7673 109.308 45.494 108.914 54.6266H85.4871C85.7688 40.1155 91.2874 29.9744 98.5521 29.9744Z" fill="#FFE9DC"/>
<path d="M326.115 78.6072C322.117 85.8349 315.303 88.3561 309.165 88.3561C294.749 88.3561 287.315 73.3409 287.315 55.1878C287.315 43.8143 290.243 34.7939 296.494 31.4323C296.494 30.3117 295.424 29.4713 294.298 29.7514C280.614 33.3932 270.421 44.9907 270.421 60.0623C270.421 78.6072 286.076 91.9977 302.576 91.9977C312.825 91.9977 323.807 86.8435 328.819 78.3833L328.368 78.0471C327.579 77.5426 326.566 77.7669 326.115 78.6072Z" fill="#FFE9DC"/>
<path d="M302.854 30.5907C308.091 33.9523 315.749 41.5162 320.592 46.7828L325.266 33.4481C320.085 30.7588 311.526 28.4056 303.923 28.4056H303.473C302.797 28.4056 302.29 28.9659 302.29 29.5822C302.29 30.0304 302.516 30.3666 302.854 30.5907Z" fill="#FFE9DC"/>
<path d="M361.315 8.85281L377.589 19.7782L378.265 19.2739L361.652 0.224609H360.977L344.364 19.2739L345.04 19.7782L361.315 8.85281Z" fill="#FFE9DC"/>
</g>
<defs>
<clipPath id="clip0_7_3015">
<rect width="393" height="92" fill="white"/>
</clipPath>
</defs>
</svg>
