<svg width="174" height="40" viewBox="0 0 174 40" fill="none" xmlns="http://www.w3.org/2000/svg">
<rect width="174" height="40" fill="#1D1D1D"/>
<path d="M30.5684 25L29.4023 21.9707H25.8047L24.6152 25H24L27.3691 16.4043H27.9199L31.2012 25H30.5684ZM29.209 21.4258L28.0254 18.2148C27.9941 18.1328 27.9551 18.0273 27.9082 17.8984C27.8652 17.7695 27.8184 17.6328 27.7676 17.4883C27.7207 17.3438 27.6738 17.207 27.627 17.0781C27.5879 17.2148 27.5449 17.3516 27.498 17.4883C27.4512 17.625 27.4062 17.7578 27.3633 17.8867C27.3203 18.0117 27.2793 18.125 27.2402 18.2266L26.0098 21.4258H29.209ZM34.5703 25.1172C33.6992 25.1172 33.0352 24.8438 32.5781 24.2969C32.125 23.7461 31.8984 22.9453 31.8984 21.8945C31.8984 20.793 32.1387 19.9531 32.6191 19.375C33.0996 18.7969 33.7695 18.5078 34.6289 18.5078C34.9961 18.5078 35.3145 18.5645 35.584 18.6777C35.8574 18.791 36.0859 18.9453 36.2695 19.1406C36.457 19.332 36.6016 19.5508 36.7031 19.7969H36.75C36.7344 19.5898 36.7227 19.3672 36.7148 19.1289C36.707 18.8906 36.7031 18.6719 36.7031 18.4727V15.8828H37.2949V25H36.8145L36.7383 23.834H36.7031C36.5977 24.0684 36.4512 24.2832 36.2637 24.4785C36.0801 24.6738 35.8496 24.8301 35.5723 24.9473C35.2949 25.0605 34.9609 25.1172 34.5703 25.1172ZM34.6348 24.6016C35.3848 24.6016 35.918 24.3691 36.2344 23.9043C36.5508 23.4355 36.709 22.7676 36.709 21.9004V21.8066C36.709 20.9082 36.5508 20.2207 36.2344 19.7441C35.918 19.2637 35.4023 19.0234 34.6875 19.0234C33.9805 19.0234 33.4395 19.2695 33.0645 19.7617C32.6934 20.2539 32.5078 20.9688 32.5078 21.9062C32.5078 22.7891 32.6816 23.459 33.0293 23.916C33.3809 24.373 33.916 24.6016 34.6348 24.6016ZM40.002 18.6309V25H39.4102V18.6309H40.002ZM39.7148 16.2754C39.8633 16.2754 39.9727 16.3203 40.043 16.4102C40.1133 16.4961 40.1484 16.6133 40.1484 16.7617C40.1484 16.9102 40.1133 17.0273 40.043 17.1133C39.9727 17.1992 39.8633 17.2422 39.7148 17.2422C39.5742 17.2422 39.4688 17.1992 39.3984 17.1133C39.3281 17.0273 39.293 16.9102 39.293 16.7617C39.293 16.6133 39.3281 16.4961 39.3984 16.4102C39.4688 16.3203 39.5742 16.2754 39.7148 16.2754ZM44.6836 25.1172C44.0508 25.1172 43.5156 24.9863 43.0781 24.7246C42.6445 24.459 42.3164 24.082 42.0938 23.5938C41.875 23.1016 41.7656 22.5195 41.7656 21.8477C41.7656 21.1484 41.8926 20.5508 42.1465 20.0547C42.4004 19.5547 42.7578 19.1719 43.2188 18.9062C43.6797 18.6406 44.2207 18.5078 44.8418 18.5078C45.1465 18.5078 45.4297 18.5352 45.6914 18.5898C45.9531 18.6445 46.1895 18.7207 46.4004 18.8184L46.2422 19.3398C46.0234 19.2422 45.791 19.168 45.5449 19.1172C45.2988 19.0664 45.0625 19.041 44.8359 19.041C44.3125 19.041 43.8672 19.1562 43.5 19.3867C43.1367 19.6133 42.8574 19.9375 42.6621 20.3594C42.4707 20.7773 42.375 21.2715 42.375 21.8418C42.375 22.377 42.457 22.8516 42.6211 23.2656C42.7852 23.6758 43.0371 24 43.377 24.2383C43.7168 24.4727 44.1523 24.5898 44.6836 24.5898C44.9922 24.5898 45.2852 24.5586 45.5625 24.4961C45.8438 24.4336 46.0996 24.3535 46.3301 24.2559V24.7949C46.123 24.8887 45.8828 24.9648 45.6094 25.0234C45.3398 25.0859 45.0312 25.1172 44.6836 25.1172ZM48.4277 18.6309V25H47.8359V18.6309H48.4277ZM48.1406 16.2754C48.2891 16.2754 48.3984 16.3203 48.4688 16.4102C48.5391 16.4961 48.5742 16.6133 48.5742 16.7617C48.5742 16.9102 48.5391 17.0273 48.4688 17.1133C48.3984 17.1992 48.2891 17.2422 48.1406 17.2422C48 17.2422 47.8945 17.1992 47.8242 17.1133C47.7539 17.0273 47.7188 16.9102 47.7188 16.7617C47.7188 16.6133 47.7539 16.4961 47.8242 16.4102C47.8945 16.3203 48 16.2754 48.1406 16.2754ZM55.8398 21.8066C55.8398 22.2988 55.7793 22.748 55.6582 23.1543C55.5371 23.5566 55.3574 23.9043 55.1191 24.1973C54.8809 24.4902 54.584 24.7168 54.2285 24.877C53.877 25.0371 53.4668 25.1172 52.998 25.1172C52.5527 25.1172 52.1562 25.0391 51.8086 24.8828C51.4609 24.7227 51.166 24.4961 50.9238 24.2031C50.6855 23.9102 50.5039 23.5625 50.3789 23.1602C50.2539 22.7539 50.1914 22.3027 50.1914 21.8066C50.1914 21.123 50.3047 20.5352 50.5312 20.043C50.7617 19.5469 51.0898 19.168 51.5156 18.9062C51.9453 18.6406 52.459 18.5078 53.0566 18.5078C53.6738 18.5078 54.1875 18.6484 54.5977 18.9297C55.0117 19.207 55.3223 19.5938 55.5293 20.0898C55.7363 20.5859 55.8398 21.1582 55.8398 21.8066ZM50.8008 21.8066C50.8008 22.3652 50.8809 22.8535 51.041 23.2715C51.2012 23.6895 51.4434 24.0156 51.7676 24.25C52.0957 24.4844 52.5098 24.6016 53.0098 24.6016C53.5215 24.6016 53.9414 24.4844 54.2695 24.25C54.5977 24.0156 54.8398 23.6875 54.9961 23.2656C55.1523 22.8438 55.2305 22.3574 55.2305 21.8066C55.2305 21.2715 55.1562 20.7949 55.0078 20.377C54.8594 19.959 54.625 19.6309 54.3047 19.3926C53.9844 19.1504 53.5664 19.0293 53.0508 19.0293C52.3125 19.0293 51.752 19.2754 51.3691 19.7676C50.9902 20.2598 50.8008 20.9395 50.8008 21.8066ZM60.4043 18.5078C61.1191 18.5078 61.668 18.6953 62.0508 19.0703C62.4336 19.4453 62.625 20.0332 62.625 20.834V25H62.0391V20.8691C62.0391 20.2363 61.8945 19.7715 61.6055 19.4746C61.3164 19.1777 60.8965 19.0293 60.3457 19.0293C59.6465 19.0293 59.1113 19.2344 58.7402 19.6445C58.373 20.0508 58.1895 20.666 58.1895 21.4902V25H57.5977V18.6309H58.0781L58.166 19.791H58.2012C58.3145 19.5527 58.4688 19.3379 58.6641 19.1465C58.8633 18.9512 59.1074 18.7969 59.3965 18.6836C59.6855 18.5664 60.0215 18.5078 60.4043 18.5078ZM66.9141 18.5195C67.6133 18.5195 68.1367 18.6953 68.4844 19.0469C68.832 19.3984 69.0059 19.959 69.0059 20.7285V25H68.5488L68.4434 23.8867H68.4082C68.2715 24.125 68.1055 24.3379 67.9102 24.5254C67.7148 24.709 67.4746 24.8535 67.1895 24.959C66.9082 25.0645 66.5645 25.1172 66.1582 25.1172C65.748 25.1172 65.3965 25.0488 65.1035 24.9121C64.8145 24.7754 64.5898 24.5762 64.4297 24.3145C64.2734 24.0527 64.1953 23.7344 64.1953 23.3594C64.1953 22.7266 64.457 22.2461 64.9805 21.918C65.5039 21.5859 66.2559 21.3984 67.2363 21.3555L68.4199 21.2969V20.834C68.4199 20.1816 68.291 19.7168 68.0332 19.4395C67.7754 19.1621 67.3945 19.0234 66.8906 19.0234C66.5625 19.0234 66.2461 19.0664 65.9414 19.1523C65.6406 19.2344 65.334 19.3535 65.0215 19.5098L64.834 19.0176C65.1387 18.873 65.4648 18.7539 65.8125 18.6602C66.1641 18.5664 66.5312 18.5195 66.9141 18.5195ZM68.4141 21.7598L67.3008 21.8066C66.4922 21.8457 65.877 21.9902 65.4551 22.2402C65.0332 22.4902 64.8223 22.8652 64.8223 23.3652C64.8223 23.7676 64.9473 24.0762 65.1973 24.291C65.4512 24.5059 65.8027 24.6133 66.252 24.6133C66.9512 24.6133 67.4844 24.4141 67.8516 24.0156C68.2227 23.6172 68.4102 23.0742 68.4141 22.3867V21.7598ZM73.3594 25.1172C72.4883 25.1172 71.8242 24.8438 71.3672 24.2969C70.9141 23.7461 70.6875 22.9453 70.6875 21.8945C70.6875 20.793 70.9277 19.9531 71.4082 19.375C71.8887 18.7969 72.5586 18.5078 73.418 18.5078C73.7852 18.5078 74.1035 18.5645 74.373 18.6777C74.6465 18.791 74.875 18.9453 75.0586 19.1406C75.2461 19.332 75.3906 19.5508 75.4922 19.7969H75.5391C75.5234 19.5898 75.5117 19.3672 75.5039 19.1289C75.4961 18.8906 75.4922 18.6719 75.4922 18.4727V15.8828H76.084V25H75.6035L75.5273 23.834H75.4922C75.3867 24.0684 75.2402 24.2832 75.0527 24.4785C74.8691 24.6738 74.6387 24.8301 74.3613 24.9473C74.084 25.0605 73.75 25.1172 73.3594 25.1172ZM73.4238 24.6016C74.1738 24.6016 74.707 24.3691 75.0234 23.9043C75.3398 23.4355 75.498 22.7676 75.498 21.9004V21.8066C75.498 20.9082 75.3398 20.2207 75.0234 19.7441C74.707 19.2637 74.1914 19.0234 73.4766 19.0234C72.7695 19.0234 72.2285 19.2695 71.8535 19.7617C71.4824 20.2539 71.2969 20.9688 71.2969 21.9062C71.2969 22.7891 71.4707 23.459 71.8184 23.916C72.1699 24.373 72.7051 24.6016 73.4238 24.6016ZM83.4844 21.8066C83.4844 22.2988 83.4238 22.748 83.3027 23.1543C83.1816 23.5566 83.002 23.9043 82.7637 24.1973C82.5254 24.4902 82.2285 24.7168 81.873 24.877C81.5215 25.0371 81.1113 25.1172 80.6426 25.1172C80.1973 25.1172 79.8008 25.0391 79.4531 24.8828C79.1055 24.7227 78.8105 24.4961 78.5684 24.2031C78.3301 23.9102 78.1484 23.5625 78.0234 23.1602C77.8984 22.7539 77.8359 22.3027 77.8359 21.8066C77.8359 21.123 77.9492 20.5352 78.1758 20.043C78.4062 19.5469 78.7344 19.168 79.1602 18.9062C79.5898 18.6406 80.1035 18.5078 80.7012 18.5078C81.3184 18.5078 81.832 18.6484 82.2422 18.9297C82.6562 19.207 82.9668 19.5938 83.1738 20.0898C83.3809 20.5859 83.4844 21.1582 83.4844 21.8066ZM78.4453 21.8066C78.4453 22.3652 78.5254 22.8535 78.6855 23.2715C78.8457 23.6895 79.0879 24.0156 79.4121 24.25C79.7402 24.4844 80.1543 24.6016 80.6543 24.6016C81.166 24.6016 81.5859 24.4844 81.9141 24.25C82.2422 24.0156 82.4844 23.6875 82.6406 23.2656C82.7969 22.8438 82.875 22.3574 82.875 21.8066C82.875 21.2715 82.8008 20.7949 82.6523 20.377C82.5039 19.959 82.2695 19.6309 81.9492 19.3926C81.6289 19.1504 81.2109 19.0293 80.6953 19.0293C79.957 19.0293 79.3965 19.2754 79.0137 19.7676C78.6348 20.2598 78.4453 20.9395 78.4453 21.8066ZM90.5859 18.5195C91.2852 18.5195 91.8086 18.6953 92.1562 19.0469C92.5039 19.3984 92.6777 19.959 92.6777 20.7285V25H92.2207L92.1152 23.8867H92.0801C91.9434 24.125 91.7773 24.3379 91.582 24.5254C91.3867 24.709 91.1465 24.8535 90.8613 24.959C90.5801 25.0645 90.2363 25.1172 89.8301 25.1172C89.4199 25.1172 89.0684 25.0488 88.7754 24.9121C88.4863 24.7754 88.2617 24.5762 88.1016 24.3145C87.9453 24.0527 87.8672 23.7344 87.8672 23.3594C87.8672 22.7266 88.1289 22.2461 88.6523 21.918C89.1758 21.5859 89.9277 21.3984 90.9082 21.3555L92.0918 21.2969V20.834C92.0918 20.1816 91.9629 19.7168 91.7051 19.4395C91.4473 19.1621 91.0664 19.0234 90.5625 19.0234C90.2344 19.0234 89.918 19.0664 89.6133 19.1523C89.3125 19.2344 89.0059 19.3535 88.6934 19.5098L88.5059 19.0176C88.8105 18.873 89.1367 18.7539 89.4844 18.6602C89.8359 18.5664 90.2031 18.5195 90.5859 18.5195ZM92.0859 21.7598L90.9727 21.8066C90.1641 21.8457 89.5488 21.9902 89.127 22.2402C88.7051 22.4902 88.4941 22.8652 88.4941 23.3652C88.4941 23.7676 88.6191 24.0762 88.8691 24.291C89.123 24.5059 89.4746 24.6133 89.9238 24.6133C90.623 24.6133 91.1562 24.4141 91.5234 24.0156C91.8945 23.6172 92.082 23.0742 92.0859 22.3867V21.7598ZM100.008 21.8066C100.008 22.2988 99.9473 22.748 99.8262 23.1543C99.7051 23.5566 99.5254 23.9043 99.2871 24.1973C99.0488 24.4902 98.752 24.7168 98.3965 24.877C98.0449 25.0371 97.6348 25.1172 97.166 25.1172C96.7207 25.1172 96.3242 25.0391 95.9766 24.8828C95.6289 24.7227 95.334 24.4961 95.0918 24.2031C94.8535 23.9102 94.6719 23.5625 94.5469 23.1602C94.4219 22.7539 94.3594 22.3027 94.3594 21.8066C94.3594 21.123 94.4727 20.5352 94.6992 20.043C94.9297 19.5469 95.2578 19.168 95.6836 18.9062C96.1133 18.6406 96.627 18.5078 97.2246 18.5078C97.8418 18.5078 98.3555 18.6484 98.7656 18.9297C99.1797 19.207 99.4902 19.5938 99.6973 20.0898C99.9043 20.5859 100.008 21.1582 100.008 21.8066ZM94.9688 21.8066C94.9688 22.3652 95.0488 22.8535 95.209 23.2715C95.3691 23.6895 95.6113 24.0156 95.9355 24.25C96.2637 24.4844 96.6777 24.6016 97.1777 24.6016C97.6895 24.6016 98.1094 24.4844 98.4375 24.25C98.7656 24.0156 99.0078 23.6875 99.1641 23.2656C99.3203 22.8438 99.3984 22.3574 99.3984 21.8066C99.3984 21.2715 99.3242 20.7949 99.1758 20.377C99.0273 19.959 98.793 19.6309 98.4727 19.3926C98.1523 19.1504 97.7344 19.0293 97.2188 19.0293C96.4805 19.0293 95.9199 19.2754 95.5371 19.7676C95.1582 20.2598 94.9688 20.9395 94.9688 21.8066ZM107.438 25.1172C106.805 25.1172 106.27 24.9863 105.832 24.7246C105.398 24.459 105.07 24.082 104.848 23.5938C104.629 23.1016 104.52 22.5195 104.52 21.8477C104.52 21.1484 104.646 20.5508 104.9 20.0547C105.154 19.5547 105.512 19.1719 105.973 18.9062C106.434 18.6406 106.975 18.5078 107.596 18.5078C107.9 18.5078 108.184 18.5352 108.445 18.5898C108.707 18.6445 108.943 18.7207 109.154 18.8184L108.996 19.3398C108.777 19.2422 108.545 19.168 108.299 19.1172C108.053 19.0664 107.816 19.041 107.59 19.041C107.066 19.041 106.621 19.1562 106.254 19.3867C105.891 19.6133 105.611 19.9375 105.416 20.3594C105.225 20.7773 105.129 21.2715 105.129 21.8418C105.129 22.377 105.211 22.8516 105.375 23.2656C105.539 23.6758 105.791 24 106.131 24.2383C106.471 24.4727 106.906 24.5898 107.438 24.5898C107.746 24.5898 108.039 24.5586 108.316 24.4961C108.598 24.4336 108.854 24.3535 109.084 24.2559V24.7949C108.877 24.8887 108.637 24.9648 108.363 25.0234C108.094 25.0859 107.785 25.1172 107.438 25.1172ZM112.816 18.5195C113.516 18.5195 114.039 18.6953 114.387 19.0469C114.734 19.3984 114.908 19.959 114.908 20.7285V25H114.451L114.346 23.8867H114.311C114.174 24.125 114.008 24.3379 113.812 24.5254C113.617 24.709 113.377 24.8535 113.092 24.959C112.811 25.0645 112.467 25.1172 112.061 25.1172C111.65 25.1172 111.299 25.0488 111.006 24.9121C110.717 24.7754 110.492 24.5762 110.332 24.3145C110.176 24.0527 110.098 23.7344 110.098 23.3594C110.098 22.7266 110.359 22.2461 110.883 21.918C111.406 21.5859 112.158 21.3984 113.139 21.3555L114.322 21.2969V20.834C114.322 20.1816 114.193 19.7168 113.936 19.4395C113.678 19.1621 113.297 19.0234 112.793 19.0234C112.465 19.0234 112.148 19.0664 111.844 19.1523C111.543 19.2344 111.236 19.3535 110.924 19.5098L110.736 19.0176C111.041 18.873 111.367 18.7539 111.715 18.6602C112.066 18.5664 112.434 18.5195 112.816 18.5195ZM114.316 21.7598L113.203 21.8066C112.395 21.8457 111.779 21.9902 111.357 22.2402C110.936 22.4902 110.725 22.8652 110.725 23.3652C110.725 23.7676 110.85 24.0762 111.1 24.291C111.354 24.5059 111.705 24.6133 112.154 24.6133C112.854 24.6133 113.387 24.4141 113.754 24.0156C114.125 23.6172 114.312 23.0742 114.316 22.3867V21.7598ZM119.49 18.5195C119.658 18.5195 119.816 18.5293 119.965 18.5488C120.113 18.5684 120.252 18.5957 120.381 18.6309L120.287 19.1758C120.158 19.1406 120.027 19.1152 119.895 19.0996C119.762 19.0801 119.619 19.0703 119.467 19.0703C119.166 19.0703 118.896 19.127 118.658 19.2402C118.424 19.3535 118.225 19.5156 118.061 19.7266C117.896 19.9375 117.771 20.1914 117.686 20.4883C117.6 20.7852 117.557 21.1172 117.557 21.4844V25H116.959V18.6309H117.469L117.527 19.832H117.562C117.66 19.5859 117.797 19.3652 117.973 19.1699C118.152 18.9707 118.369 18.8125 118.623 18.6953C118.877 18.5781 119.166 18.5195 119.49 18.5195ZM124.166 18.5195C124.334 18.5195 124.492 18.5293 124.641 18.5488C124.789 18.5684 124.928 18.5957 125.057 18.6309L124.963 19.1758C124.834 19.1406 124.703 19.1152 124.57 19.0996C124.438 19.0801 124.295 19.0703 124.143 19.0703C123.842 19.0703 123.572 19.127 123.334 19.2402C123.1 19.3535 122.9 19.5156 122.736 19.7266C122.572 19.9375 122.447 20.1914 122.361 20.4883C122.275 20.7852 122.232 21.1172 122.232 21.4844V25H121.635V18.6309H122.145L122.203 19.832H122.238C122.336 19.5859 122.473 19.3652 122.648 19.1699C122.828 18.9707 123.045 18.8125 123.299 18.6953C123.553 18.5781 123.842 18.5195 124.166 18.5195ZM126.896 18.6309V25H126.305V18.6309H126.896ZM126.609 16.2754C126.758 16.2754 126.867 16.3203 126.938 16.4102C127.008 16.4961 127.043 16.6133 127.043 16.7617C127.043 16.9102 127.008 17.0273 126.938 17.1133C126.867 17.1992 126.758 17.2422 126.609 17.2422C126.469 17.2422 126.363 17.1992 126.293 17.1133C126.223 17.0273 126.188 16.9102 126.188 16.7617C126.188 16.6133 126.223 16.4961 126.293 16.4102C126.363 16.3203 126.469 16.2754 126.609 16.2754ZM131.83 18.5078C132.545 18.5078 133.094 18.6953 133.477 19.0703C133.859 19.4453 134.051 20.0332 134.051 20.834V25H133.465V20.8691C133.465 20.2363 133.32 19.7715 133.031 19.4746C132.742 19.1777 132.322 19.0293 131.771 19.0293C131.072 19.0293 130.537 19.2344 130.166 19.6445C129.799 20.0508 129.615 20.666 129.615 21.4902V25H129.023V18.6309H129.504L129.592 19.791H129.627C129.74 19.5527 129.895 19.3379 130.09 19.1465C130.289 18.9512 130.533 18.7969 130.822 18.6836C131.111 18.5664 131.447 18.5078 131.83 18.5078ZM136.705 15.8828V18.8594C136.705 19.0312 136.701 19.1914 136.693 19.3398C136.689 19.4883 136.682 19.6387 136.67 19.791H136.711C136.816 19.5488 136.967 19.332 137.162 19.1406C137.361 18.9492 137.605 18.7969 137.895 18.6836C138.188 18.5703 138.525 18.5137 138.908 18.5137C139.393 18.5137 139.799 18.5977 140.127 18.7656C140.459 18.9297 140.711 19.1816 140.883 19.5215C141.055 19.8613 141.141 20.2988 141.141 20.834V25H140.555V20.8691C140.555 20.2363 140.41 19.7715 140.121 19.4746C139.832 19.1777 139.412 19.0293 138.861 19.0293C138.393 19.0293 137.998 19.1211 137.678 19.3047C137.357 19.4844 137.115 19.7578 136.951 20.125C136.787 20.4883 136.705 20.9434 136.705 21.4902V25H136.113V15.8828H136.705ZM148.488 21.8066C148.488 22.2988 148.428 22.748 148.307 23.1543C148.186 23.5566 148.006 23.9043 147.768 24.1973C147.529 24.4902 147.232 24.7168 146.877 24.877C146.525 25.0371 146.115 25.1172 145.646 25.1172C145.201 25.1172 144.805 25.0391 144.457 24.8828C144.109 24.7227 143.814 24.4961 143.572 24.2031C143.334 23.9102 143.152 23.5625 143.027 23.1602C142.902 22.7539 142.84 22.3027 142.84 21.8066C142.84 21.123 142.953 20.5352 143.18 20.043C143.41 19.5469 143.738 19.168 144.164 18.9062C144.594 18.6406 145.107 18.5078 145.705 18.5078C146.322 18.5078 146.836 18.6484 147.246 18.9297C147.66 19.207 147.971 19.5938 148.178 20.0898C148.385 20.5859 148.488 21.1582 148.488 21.8066ZM143.449 21.8066C143.449 22.3652 143.529 22.8535 143.689 23.2715C143.85 23.6895 144.092 24.0156 144.416 24.25C144.744 24.4844 145.158 24.6016 145.658 24.6016C146.17 24.6016 146.59 24.4844 146.918 24.25C147.246 24.0156 147.488 23.6875 147.645 23.2656C147.801 22.8438 147.879 22.3574 147.879 21.8066C147.879 21.2715 147.805 20.7949 147.656 20.377C147.508 19.959 147.273 19.6309 146.953 19.3926C146.633 19.1504 146.215 19.0293 145.699 19.0293C144.961 19.0293 144.4 19.2754 144.018 19.7676C143.639 20.2598 143.449 20.9395 143.449 21.8066Z" fill="white"/>
</svg>
