<svg width="24" height="24" viewBox="0 0 24 24" fill="none" xmlns="http://www.w3.org/2000/svg">
<path d="M11.99 0C5.368 0 0 5.368 0 11.99C0 17.072 3.158 21.414 7.618 23.161C7.509 22.214 7.421 20.753 7.657 19.717C7.874 18.779 9.058 13.756 9.058 13.756C9.058 13.756 8.703 13.036 8.703 11.98C8.703 10.312 9.67 9.069 10.874 9.069C11.9 9.069 12.394 9.839 12.394 10.757C12.394 11.783 11.743 13.323 11.397 14.754C11.111 15.948 11.999 16.925 13.173 16.925C15.305 16.925 16.943 14.675 16.943 11.438C16.943 8.566 14.881 6.563 11.93 6.563C8.516 6.563 6.512 9.119 6.512 11.764C6.512 12.79 6.907 13.896 7.4 14.498C7.5 14.615 7.51 14.724 7.48 14.842C7.391 15.217 7.184 16.036 7.144 16.204C7.095 16.421 6.966 16.47 6.739 16.362C5.239 15.661 4.301 13.48 4.301 11.714C4.301 7.934 7.044 4.461 12.225 4.461C16.38 4.461 19.616 7.422 19.616 11.389C19.616 15.524 17.011 18.85 13.399 18.85C12.185 18.85 11.04 18.218 10.656 17.468C10.656 17.468 10.054 19.757 9.906 20.32C9.64 21.366 8.909 22.669 8.416 23.468C9.542 23.812 10.727 24 11.97 24C18.592 24 23.96 18.632 23.96 12.01C23.98 5.368 18.612 0 11.99 0Z" fill="#FFE9DC"/>
</svg>
