<svg width="21" height="24" viewBox="0 0 21 24" fill="none" xmlns="http://www.w3.org/2000/svg">
<path d="M20.928 9.866C18.789 9.866 16.806 9.182 15.188 8.02V16.405C15.188 20.593 11.781 23.999 7.594 23.999C5.976 23.999 4.475 23.489 3.242 22.623C1.284 21.248 0 18.974 0 16.405C0 12.217 3.407 8.81 7.595 8.81C7.943 8.81 8.283 8.839 8.618 8.884V9.861V13.096C8.294 12.995 7.952 12.936 7.595 12.936C5.683 12.936 4.127 14.492 4.127 16.405C4.127 17.737 4.883 18.894 5.987 19.475C6.468 19.728 7.015 19.873 7.596 19.873C9.464 19.873 10.988 18.387 11.058 16.535L11.061 0H15.187C15.187 0.358 15.222 0.707 15.284 1.047C15.575 2.619 16.508 3.968 17.801 4.811C18.701 5.398 19.775 5.741 20.927 5.741L20.928 9.866Z" fill="#FFE9DC"/>
</svg>
