<svg width="24" height="20" viewBox="0 0 24 20" fill="none" xmlns="http://www.w3.org/2000/svg">
<path d="M21.543 4.85434C21.557 5.06534 21.557 5.27734 21.557 5.49034C21.557 11.9973 16.603 19.5003 7.547 19.5003V19.4963C4.872 19.5003 2.252 18.7343 0 17.2893C0.389 17.3363 0.78 17.3593 1.172 17.3603C3.39 17.3623 5.544 16.6183 7.287 15.2483C5.18 15.2083 3.332 13.8343 2.687 11.8283C3.425 11.9703 4.185 11.9413 4.91 11.7443C2.612 11.2803 0.96 9.26134 0.96 6.91734C0.96 6.89634 0.96 6.87534 0.96 6.85534C1.645 7.23734 2.411 7.44834 3.195 7.47134C1.031 6.02634 0.363 3.14834 1.67 0.898341C4.17 3.97434 7.859 5.84434 11.818 6.04334C11.421 4.33334 11.964 2.54134 13.242 1.33834C15.225 -0.526659 18.344 -0.430659 20.209 1.55234C21.312 1.33534 22.369 0.930341 23.336 0.357341C22.968 1.49734 22.199 2.46534 21.171 3.08134C22.148 2.96434 23.101 2.70334 24 2.30534C23.339 3.29434 22.507 4.15734 21.543 4.85434Z" fill="#FFE9DC"/>
</svg>
